<svg width="268" height="97" viewBox="0 0 268 97" fill="none" xmlns="http://www.w3.org/2000/svg">
<path d="M35.28 25V31.48H21.66V67H14.64V31.48H1.02V25H35.28ZM50.2533 36.76C51.6933 36.76 53.0733 37 54.3933 37.48C55.7533 37.92 56.8733 38.54 57.7533 39.34L54.7533 44.8C53.1533 43.72 51.4933 43.18 49.7733 43.18C47.3733 43.18 45.4533 44.02 44.0133 45.7C42.6133 47.38 41.9133 49.66 41.9133 52.54V67H35.1933V37.36H41.1933L41.2533 41.92C42.4133 40.16 43.7333 38.86 45.2133 38.02C46.6933 37.18 48.3733 36.76 50.2533 36.76ZM90.6145 37.36V67H84.6145L84.5545 63.04C83.3945 64.48 81.8745 65.62 79.9945 66.46C78.1145 67.26 76.0345 67.66 73.7545 67.66C70.8745 67.66 68.3145 67.02 66.0745 65.74C63.8745 64.42 62.1545 62.58 60.9145 60.22C59.6745 57.86 59.0545 55.18 59.0545 52.18C59.0545 49.18 59.6745 46.5 60.9145 44.14C62.1545 41.78 63.8745 39.96 66.0745 38.68C68.3145 37.36 70.8745 36.7 73.7545 36.7C76.0345 36.7 78.1145 37.12 79.9945 37.96C81.8745 38.76 83.3945 39.88 84.5545 41.32L84.6145 37.36H90.6145ZM74.8345 61.54C77.5145 61.54 79.6945 60.68 81.3745 58.96C83.0545 57.2 83.8945 54.94 83.8945 52.18C83.8945 49.42 83.0545 47.18 81.3745 45.46C79.6945 43.7 77.5145 42.82 74.8345 42.82C72.1545 42.82 69.9745 43.7 68.2945 45.46C66.6145 47.18 65.7745 49.42 65.7745 52.18C65.7745 54.94 66.6145 57.2 68.2945 58.96C69.9745 60.68 72.1545 61.54 74.8345 61.54ZM115.088 36.76C117.608 36.76 119.828 37.34 121.748 38.5C123.668 39.62 125.148 41.22 126.188 43.3C127.228 45.38 127.747 47.82 127.747 50.62V67H121.028V51.04C121.028 48.44 120.388 46.42 119.108 44.98C117.828 43.54 116.068 42.82 113.828 42.82C111.388 42.82 109.388 43.64 107.828 45.28C106.268 46.88 105.488 48.92 105.488 51.4V67H98.7675V37.36H104.768L104.828 41.26C107.348 38.26 110.768 36.76 115.088 36.76ZM165.087 37.36V80.68H158.367V63.76C157.207 65 155.727 65.96 153.927 66.64C152.167 67.32 150.267 67.66 148.227 67.66C145.347 67.66 142.787 67.02 140.547 65.74C138.347 64.42 136.627 62.58 135.387 60.22C134.147 57.86 133.527 55.18 133.527 52.18C133.527 49.18 134.147 46.5 135.387 44.14C136.627 41.78 138.347 39.96 140.547 38.68C142.787 37.36 145.347 36.7 148.227 36.7C150.507 36.7 152.587 37.12 154.467 37.96C156.347 38.76 157.867 39.88 159.027 41.32L159.087 37.36H165.087ZM149.307 61.54C151.987 61.54 154.167 60.68 155.847 58.96C157.527 57.2 158.367 54.94 158.367 52.18C158.367 49.42 157.527 47.18 155.847 45.46C154.167 43.7 151.987 42.82 149.307 42.82C146.627 42.82 144.447 43.7 142.767 45.46C141.087 47.18 140.247 49.42 140.247 52.18C140.247 54.94 141.087 57.2 142.767 58.96C144.447 60.68 146.627 61.54 149.307 61.54ZM201.44 37.36V67H195.44L195.38 63.16C192.86 66.12 189.5 67.6 185.3 67.6C182.78 67.6 180.58 67.04 178.7 65.92C176.82 64.76 175.36 63.14 174.32 61.06C173.32 58.98 172.82 56.54 172.82 53.74V37.36H179.54V53.32C179.54 55.92 180.16 57.94 181.4 59.38C182.64 60.82 184.34 61.54 186.5 61.54C188.94 61.54 190.92 60.74 192.44 59.14C193.96 57.54 194.72 55.48 194.72 52.96V37.36H201.44ZM212.987 32.92C211.747 32.92 210.727 32.54 209.927 31.78C209.127 30.98 208.727 30 208.727 28.84C208.727 27.6 209.127 26.6 209.927 25.84C210.727 25.04 211.747 24.64 212.987 24.64C214.267 24.64 215.307 25.04 216.107 25.84C216.947 26.6 217.367 27.6 217.367 28.84C217.367 30 216.947 30.98 216.107 31.78C215.307 32.54 214.267 32.92 212.987 32.92ZM209.627 37.36H216.347V67H209.627V37.36Z" fill="#fff"/>
<path fill-rule="evenodd" clip-rule="evenodd" d="M232 67C232 78.0457 223.046 87 212 87C204.192 87 197.428 82.5252 194.135 76H183.373C187.196 88.1713 198.567 97 212 97C228.569 97 242 83.5685 242 67H232Z" fill="#45FFBD"/>
</svg>
